<svg enable-background="new 0 0 90 91" viewBox="0 0 90 91" xmlns="http://www.w3.org/2000/svg"><path d="m90 40.7c0-3.9-.3-7.2-1.1-9.8s-2.4-6.1-4.8-10.4c-.6-1.3-2-2.9-4-5-2.4-2.4-4.5-4.2-6.3-5.1-1.2-.6-2.5-1.5-4-2.5-1.9-1.4-3.2-2.2-3.8-2.6-3.3-2-7.3-3.5-12.1-4.2l-4-.1c-2.3-.2-3.5-.3-3.8-.4l-5.5-.1c-4.5-.3-9.3.7-14.1 3-4.7 2.3-9.1 5.5-13.1 9.7-4.1 4.3-7.2 9.3-9.6 14.7-2.6 5.7-3.8 11.6-3.8 17.8 0 9.7 2.3 18.1 6.9 25.3 6.9 10.7 18.3 17.5 34.4 20.1h8.4c12-2.3 20.9-6 27-11.1 2.3-1.9 4.2-4.2 5.9-6.7.9-1.4 2.1-3.5 3.5-6.4 1.3-2.6 2.2-4.9 2.8-6.6.8-2.4 1.1-4.5 1-6.5-.1-1.8 0-4.5.1-8-.1-3.3 0-5 0-5.1m-5.2-8.4c.7 2.4 1 5.4 1 8.9 0 .1-.1 1.7-.1 4.7-.1 3.2-.1 5.6-.1 7.3.1 1.8-.3 3.8-1 5.8-.5 1.6-1.3 3.5-2.5 6-1.3 2.6-2.4 4.6-3.1 5.8-1.5 2.3-3.3 4.4-5.4 6.1-5.4 4.7-13.6 8-24.4 10h-7.7c-14.5-2.4-25-8.5-31.2-18.2-4.2-6.5-6.3-14.2-6.3-23 0-5.6 1.1-11 3.3-16.3 2.1-4.9 5-9.4 8.7-13.3 3.6-3.8 7.6-6.7 11.9-8.8 4.5-2.1 8.8-3.1 12.9-2.8l5.2.1c.2.1 1.3.2 3.4.4l3.6.1c4.3.8 8 2 11 3.9.5.3 1.7 1.1 3.4 2.4 1.4 1 2.6 1.7 3.6 2.2 1.7.8 3.6 2.4 5.7 4.7 1.8 1.9 3.1 3.4 3.6 4.5 2.3 3.9 3.8 7.1 4.5 9.5z" fill-opacity=".1216"/><path d="m85.8 41.2c0-3.5-.3-6.5-1-8.9s-2.2-5.6-4.3-9.5c-.6-1.1-1.8-2.6-3.6-4.5-2.2-2.2-4-3.8-5.7-4.7-1-.6-2.3-1.3-3.6-2.2-1.7-1.3-2.9-2-3.4-2.4-3-1.9-6.7-3.1-11-3.9l-3.7-.1c-2.1-.2-3.2-.3-3.4-.4l-5-.1c-4.2-.3-8.5.7-12.9 2.8-4.3 2.1-8.3 5-11.9 8.8-3.7 3.9-6.6 8.3-8.7 13.3-2.2 5.3-3.3 10.7-3.3 16.3 0 8.8 2.1 16.5 6.3 23 6.3 9.7 16.6 15.9 31.2 18.2h7.7c10.9-2.1 19.1-5.4 24.4-10 2.1-1.7 3.8-3.8 5.4-6.1.8-1.3 1.9-3.2 3.1-5.8 1.2-2.4 2-4.4 2.5-6 .7-2.2 1-4.1 1-5.8-.1-1.7 0-4.1.1-7.3-.2-3.1-.2-4.7-.2-4.7m-3.7-12.1c.1.4 1 3.1 2.4 8.1v7.6c-.1 1.4-.1 3.5 0 6.2 0 7-2.2 13.4-6.6 19.3-6.2 8.3-15.7 13.4-28.6 15.2h-7.5c-14.1-2.2-24.2-8.1-30.3-17.5-4.1-6.3-6.1-13.8-6.1-22.4 0-3.3.2-5.8.6-7.6s1.4-4.5 3-8.4c1.5-3.6 3.9-7.3 7.2-11.1 3-3.1 4.5-4.7 4.5-4.7 0-.5.8-1.3 2.3-2.2 1.5-1 3.3-2 5.5-3 5.5-2.6 9.6-3.4 12.3-2.7l5 .1c1.6.1 2.8.2 3.4.3l3.6.1c2.4-.3 6.3 1.2 11.5 4.4 5.4 3.2 9.7 6.6 12.9 10.2 2.2 2.4 3.8 5.1 4.9 8.1m-33.7-9.3h-5.1v.1c-7 .3-12.7 3-17 7.9-4.4 5-6.6 11.4-6.6 19.1 0 2.9.1 4.9.4 6.1.4 2 1.5 4.2 3.1 6.5 1.9 2.6 4.1 5 6.8 7.2 4 3.3 7.9 4.8 11.7 4.7h6.5c4.6-.1 9.5-2.6 14.6-7.2 2-1.8 3.7-3.7 5-5.6 1.3-1.8 1.9-3.3 1.9-4.2 0-.2-.1-.4-.3-.5 0-.3-.4-.5-1.2-.6-2.7-.4-4.4-.7-4.9-.8-.7-.4-1.3-.6-1.8-.6-.1 0-.3.1-.3.1-.1 0-.1-.1-.1-.1-.3 0-.8.6-1.5 1.8-.9 1.5-1.5 2.3-1.9 2.6-1.1 1-2.2 1.7-3.1 2.2-1.3.7-3.1 1.3-5.4 1.9h-4.5c-4.6-.5-7.9-1.5-10-2.9-1.2-.8-2.2-2.2-3.1-4-1.2-2.3-1.9-3.7-2.2-4.3-.3-.8-.6-2-.6-3.5 0-3.3.8-6.3 2.4-9 2.5-4.1 6.6-6.6 12.3-7.4h4.5c1.1.2 2 .4 2.7.6.4.1 1.1.4 2.2.8.3.1.8.5 1.5 1.1.1.1.2.1.3.2-.8.4-1.7 1-2.8 1.9-3.1 2.3-4.5 3.8-4.5 4.4 0 .9 3.3 1.9 10 3.1 5.9 1 9.9 1.5 11.9 1.5.1 0 .3-.1.4-.3.1-.1.2-.3.2-.5 0-.1-.1-.2-.1-.3.1-.1.1-.2.1-.3 0-4.5.1-8.1.3-11.1.1-2.9.2-5.6.2-8.2 0-1.3-.1-2-.2-2.3-.5-.8-1.5-.3-3.3 1.3-.3.3-1.3 1.2-3.1 2.6-.6.5-1.1 1-1.5 1.3-.5-.8-1.9-1.9-4.4-3.1-3.3-1.5-6.4-2.3-9.5-2.2m-5.1 1.5h5.1c1.5.3 3.3.7 5.6 1.1 1.5.3 2.7.7 3.4 1 .3.2 1.7 1.1 4.1 2.9v.3c.1.2.2.3.6.3.3 0 1.3-.7 3.2-2.2 1.8-1.5 3.1-2.6 3.8-3.3l.1.1v2.2c0 .5-.2 2.9-.5 7.1-.2 2.9-.3 5.2-.3 7.1v2.4c0 .5.1 1 .1 1.3-.8-.2-1.8-.3-3.2-.6-3.5-.2-5.7-.4-6.5-.6-1.2-.2-2.6-.6-4.4-1-2.2-.6-4-1-5.2-1.3 1.8-1.4 3.3-2.5 4.3-3.3 2-1.5 3-2.4 3-2.7s-.1-.4-.3-.4c-.3-.6-1.1-1.3-2.4-1.9-1.7-.9-3.6-1.5-5.6-1.8h-4.7c-6.4.9-11 3.5-13.6 7.9-1.7 2.7-2.5 6-2.5 9.8 0 1.8.1 3.1.5 3.9.3.6 1 2.2 2.4 4.7 1.1 2.2 2.2 3.6 3.3 4.5 2.2 1.5 5.7 2.6 10.7 3.2h5c2.9-.2 5.8-1.5 8.6-4 2.2-1.9 3.3-3.5 3.6-4.7.2.1.5.3.8.4 1.5.6 3.4 1 5.8 1-.2.3-.3.6-.6.9-.3.6-.8 1.4-1.1 2.2-.7 1-2.1 2.5-4.1 4.5-1.9 1.8-3.8 3.3-5.4 4.3-2.8 1.7-5.8 2.9-9.1 3.5h-6.1c-5.1-.3-9.7-2.6-13.9-6.8-4.7-4.7-7-10-7-16.2 0-6.1 1.3-11.1 3.8-15 3.8-5.5 9.9-9.2 18.7-10.8z"/><path d="m84.4 37.2c-1.4-5-2.2-7.7-2.4-8.1-1.1-3.1-2.7-5.7-4.8-8.1-3.2-3.6-7.5-7-12.9-10.2s-9.2-4.7-11.5-4.4l-3.6-.1c-.6-.1-1.7-.2-3.4-.3l-5-.1c-2.7-.8-6.9.1-12.3 2.6-2.2 1-4 1.9-5.5 3-1.5 1-2.3 1.7-2.3 2.2 0 .1-1.5 1.7-4.5 4.7-3.3 3.8-5.8 7.5-7.2 11.1-1.6 3.9-2.6 6.7-3 8.4s-.6 4.3-.6 7.6c0 8.6 2 16.1 6.1 22.4 6.1 9.4 16.1 15.2 30.2 17.5h7.5c12.9-1.9 22.4-7 28.6-15.2 4.5-5.9 6.6-12.3 6.6-19.3-.1-2.7-.1-4.8 0-6.2zm-41.1-17.4h5.1c3-.1 6.2.8 9.5 2.4 2.4 1.3 3.9 2.3 4.4 3.1.3-.3.8-.8 1.5-1.3 1.8-1.5 2.9-2.3 3.1-2.6 1.7-1.7 2.9-2.2 3.3-1.3.1.3.2 1 .2 2.3 0 2.6-.1 5.3-.2 8.2s-.2 6.6-.2 11.1c0 .1 0 .2-.1.3.1.1.1.2.1.3 0 .2-.1.3-.2.5-.1.1-.3.3-.4.3-2 0-6-.5-11.9-1.5-6.7-1.1-10-2.2-10-3.1 0-.6 1.5-2.1 4.5-4.4 1.1-.8 2-1.5 2.8-1.9-.1-.1-.2-.1-.3-.2-.7-.6-1.2-1-1.5-1.1-1-.4-1.7-.7-2.2-.8-.7-.2-1.6-.4-2.7-.6h-4.5c-5.7.8-9.8 3.3-12.3 7.4-1.6 2.6-2.4 5.6-2.4 9 0 1.5.2 2.7.6 3.5.3.6 1 2 2.2 4.3.8 1.8 1.9 3.1 3.1 4 2.1 1.5 5.4 2.4 10 2.9h4.5c2.3-.6 4-1.2 5.4-1.9.9-.5 1.9-1.2 3.1-2.2.3-.3 1-1.2 1.9-2.6.8-1.3 1.3-1.8 1.5-1.8.1 0 .1 0 .1.1.1-.1.2-.1.3-.1.5 0 1.1.2 1.8.6.6.1 2.2.4 4.9.8.8.1 1.2.3 1.2.6.1.1.3.3.3.5 0 1-.6 2.4-1.9 4.2-1.3 1.9-3 3.8-5 5.6-5.1 4.7-10 7.1-14.6 7.2h-6.5c-3.7.1-7.6-1.5-11.7-4.7-2.7-2.2-4.9-4.6-6.8-7.2-1.7-2.3-2.7-4.5-3.1-6.5-.3-1.2-.4-3.3-.4-6.1 0-7.7 2.2-14.1 6.6-19.1s10-7.9 16.9-8.2z" fill="#70a0bd" fill-opacity=".8"/><path d="m48.4 21.3h-5.1c-8.8 1.7-15 5.3-18.5 10.8-2.5 3.8-3.8 8.8-3.8 15s2.3 11.5 7 16.2c4.2 4.2 8.9 6.5 13.9 6.8h6.1c3.3-.6 6.3-1.7 9.1-3.5 1.6-1 3.4-2.5 5.4-4.3 2-1.9 3.4-3.4 4.1-4.5.4-.8.8-1.6 1.1-2.2.2-.3.3-.7.6-.9-2.4-.1-4.5-.4-5.8-1-.3-.1-.6-.3-.8-.4-.3 1.3-1.5 2.8-3.6 4.7-2.8 2.5-5.6 3.8-8.6 4h-5c-5-.6-8.6-1.6-10.7-3.2-1.1-.8-2.2-2.2-3.3-4.5-1.3-2.4-2.2-4-2.4-4.7-.3-.8-.5-2-.5-3.9 0-3.8.8-7.1 2.5-9.8 2.6-4.4 7.2-7 13.6-7.9v-.1h4.7c2 .3 3.9.8 5.6 1.8 1.3.7 2.1 1.3 2.4 1.9.2 0 .3.1.3.4s-1 1.2-3 2.7c-1 .8-2.5 1.9-4.3 3.3 1.3.3 3.1.7 5.2 1.3 1.7.4 3.2.8 4.4 1 .8.1 3 .3 6.5.6 1.4.1 2.4.3 3.2.6-.1-.3-.1-.8-.1-1.3 0-1.5 0-2.3 0-2.4 0-1.9.1-4.2.3-7.1.3-4.2.5-6.6.5-7.1v-2.2l-.1-.1c-.8.8-2 1.9-3.8 3.3-1.9 1.5-2.9 2.2-3.2 2.2s-.5-.1-.6-.3c0-.1 0-.3 0-.3-2.4-1.7-3.8-2.6-4.1-2.9-.7-.3-1.9-.6-3.4-1-2.4-.4-4.3-.8-5.8-1z" fill="#fabf2e"/></svg>