<?xml version="1.0" encoding="utf-8"?>
<!-- Generator: Adobe Illustrator 24.1.0, SVG Export Plug-In . SVG Version: 6.00 Build 0)  -->
<svg version="1.1" id="Layer_1" xmlns="http://www.w3.org/2000/svg" xmlns:xlink="http://www.w3.org/1999/xlink" x="0px" y="0px"
	 viewBox="0 0 68.2 68.8" style="enable-background:new 0 0 68.2 68.8;" xml:space="preserve">
<style type="text/css">
	.st0{fill:#FFFFFF;}
	.st1{fill:#A5BF44;}
</style>
<g transform="matrix( 1, 0, 0, 1, 0,0) ">
	<g>
		<path d="M67.2,30.7c0-2.9-0.2-5.3-0.8-7.2c-0.6-2-1.8-4.6-3.5-7.7c-0.5-0.9-1.5-2.1-2.9-3.7c-1.8-1.8-3.3-3.1-4.6-3.8
			c-0.8-0.5-1.9-1.1-2.9-1.8c-1.4-1.1-2.4-1.6-2.8-2c-2.4-1.5-5.5-2.5-9-3.2l-3-0.1C35.9,1.1,35,1,34.9,0.9l-4.1-0.1
			c-3.4-0.2-6.9,0.6-10.5,2.3c-3.5,1.7-6.8,4.1-9.7,7.2c-3,3.2-5.4,6.8-7.1,10.8c-1.8,4.3-2.7,8.7-2.7,13.3c0,7.2,1.7,13.4,5.1,18.7
			C11.1,61,19.5,66.1,31.4,68h6.3c8.9-1.7,15.6-4.4,19.9-8.1c1.7-1.4,3.1-3.1,4.4-5c0.7-1.1,1.5-2.6,2.5-4.7c1-2,1.6-3.6,2-4.9
			c0.6-1.8,0.8-3.3,0.8-4.7c-0.1-1.4,0-3.3,0.1-5.9C67.2,32.1,67.2,30.7,67.2,30.7 M64.2,20.9c0.1,0.3,0.8,2.5,2,6.6v6.2
			c-0.1,1.1-0.1,2.9,0,5c0,5.7-1.8,10.9-5.4,15.7c-5,6.8-12.8,10.9-23.3,12.4h-6.1C19.9,65,11.7,60.2,6.7,52.6
			c-3.3-5.1-5-11.2-5-18.2c0-2.7,0.2-4.7,0.5-6.2s1.1-3.7,2.4-6.8c1.2-2.9,3.2-5.9,5.9-9c2.4-2.5,3.7-3.8,3.7-3.8
			c0-0.4,0.7-1.1,1.9-1.8c1.2-0.8,2.7-1.6,4.5-2.4c4.5-2.1,7.8-2.8,10-2.2l4.1,0.1c1.3,0.1,2.3,0.2,2.8,0.2l2.9,0.1
			c2-0.2,5.1,1,9.4,3.6c4.4,2.6,7.9,5.4,10.5,8.3C62,16.3,63.3,18.5,64.2,20.9 M36.8,13.3h-4.2v0.1c-5.7,0.2-10.3,2.4-13.8,6.4
			c-3.6,4.1-5.4,9.3-5.4,15.6c0,2.4,0.1,4,0.3,5c0.3,1.6,1.2,3.4,2.5,5.3c1.5,2.1,3.3,4.1,5.5,5.9c3.3,2.7,6.4,3.9,9.5,3.8h5.3
			c3.7-0.1,7.7-2.1,11.9-5.9c1.6-1.5,3-3,4.1-4.6c1.1-1.5,1.5-2.7,1.5-3.4c0-0.2-0.1-0.3-0.2-0.4c0-0.2-0.3-0.4-1-0.5
			c-2.2-0.3-3.6-0.6-4-0.7c-0.6-0.3-1.1-0.5-1.5-0.5c-0.1,0-0.2,0.1-0.2,0.1c-0.1,0-0.1-0.1-0.1-0.1c-0.2,0-0.7,0.5-1.2,1.5
			c-0.7,1.2-1.2,1.9-1.5,2.1c-0.9,0.8-1.8,1.4-2.5,1.8c-1.1,0.6-2.5,1.1-4.4,1.5h-3.7C30,46,27.3,45.2,25.6,44
			c-1-0.7-1.8-1.8-2.5-3.3c-1-1.9-1.5-3-1.8-3.5c-0.2-0.7-0.5-1.6-0.5-2.9c0-2.7,0.7-5.1,2-7.3c2-3.3,5.4-5.4,10-6h3.7
			c0.9,0.2,1.6,0.3,2.2,0.5c0.3,0.1,0.9,0.3,1.8,0.7c0.2,0.1,0.7,0.4,1.2,0.9c0.1,0.1,0.2,0.1,0.2,0.2c-0.7,0.3-1.4,0.8-2.3,1.5
			c-2.5,1.9-3.7,3.1-3.7,3.6c0,0.7,2.7,1.5,8.1,2.5c4.8,0.8,8.1,1.2,9.7,1.2c0.1,0,0.2-0.1,0.3-0.2c0.1-0.1,0.2-0.2,0.2-0.4
			c0-0.1-0.1-0.2-0.1-0.2c0.1-0.1,0.1-0.2,0.1-0.2c0-3.7,0.1-6.6,0.2-9c0.1-2.4,0.2-4.6,0.2-6.7c0-1.1-0.1-1.6-0.2-1.9
			c-0.4-0.7-1.2-0.2-2.7,1.1c-0.2,0.2-1.1,1-2.5,2.1c-0.5,0.4-0.9,0.8-1.2,1.1c-0.4-0.7-1.5-1.5-3.6-2.5
			C41.8,13.9,39.3,13.2,36.8,13.3 M32.6,14.5h4.2c1.2,0.2,2.7,0.6,4.6,0.9c1.2,0.2,2.2,0.6,2.8,0.8c0.2,0.2,1.4,0.9,3.3,2.4
			c0,0.1,0,0.1,0,0.2c0.1,0.2,0.2,0.2,0.5,0.2c0.2,0,1.1-0.6,2.6-1.8c1.5-1.2,2.5-2.1,3.1-2.7l0.1,0.1v1.8c0,0.4-0.2,2.4-0.4,5.8
			c-0.2,2.4-0.2,4.2-0.2,5.8c0,0,0,0.7,0,2c0,0.4,0.1,0.8,0.1,1.1c-0.7-0.2-1.5-0.2-2.6-0.5c-2.9-0.2-4.6-0.3-5.3-0.5
			c-1-0.2-2.1-0.5-3.6-0.8c-1.8-0.5-3.3-0.8-4.2-1.1c1.5-1.1,2.7-2,3.5-2.7c1.6-1.2,2.4-2,2.4-2.2c0-0.2-0.1-0.3-0.2-0.3
			c-0.2-0.5-0.9-1.1-2-1.5c-1.4-0.7-2.9-1.2-4.6-1.5h-3.8v0c-5.2,0.7-9,2.9-11.1,6.4c-1.4,2.2-2,4.9-2,8c0,1.5,0.1,2.5,0.4,3.2
			c0.2,0.5,0.8,1.8,2,3.8c0.9,1.8,1.8,2.9,2.7,3.7c1.8,1.2,4.6,2.1,8.7,2.6h4.1c2.4-0.2,4.7-1.2,7-3.3c1.8-1.5,2.7-2.9,2.9-3.8
			c0.2,0.1,0.4,0.2,0.7,0.3c1.2,0.5,2.8,0.8,4.7,0.8c-0.2,0.2-0.2,0.5-0.5,0.7c-0.2,0.5-0.7,1.1-0.9,1.8c-0.6,0.8-1.7,2-3.3,3.7
			c-1.5,1.5-3.1,2.7-4.4,3.5c-2.3,1.4-4.7,2.4-7.4,2.9h-5c-4.2-0.2-7.9-2.1-11.3-5.5c-3.8-3.8-5.7-8.1-5.7-13.2c0-5,1.1-9,3.1-12.2
			C20.5,18.9,25.4,15.8,32.6,14.5z"/>
		<path class="st0" d="M66.1,27.5c-1.1-4.1-1.8-6.3-2-6.6c-0.9-2.5-2.2-4.6-3.9-6.6c-2.6-2.9-6.1-5.7-10.5-8.3s-7.5-3.8-9.4-3.6
			l-2.9-0.1c-0.5-0.1-1.4-0.2-2.8-0.2L30.6,2c-2.2-0.7-5.6,0.1-10,2.1c-1.8,0.8-3.3,1.5-4.5,2.4c-1.2,0.8-1.9,1.4-1.9,1.8
			c0,0.1-1.2,1.4-3.7,3.8c-2.7,3.1-4.7,6.1-5.9,9c-1.3,3.2-2.1,5.5-2.4,6.8c-0.3,1.4-0.5,3.5-0.5,6.2c0,7,1.6,13.1,5,18.2
			c5,7.7,13.1,12.4,24.6,14.3h6.1c10.5-1.5,18.2-5.7,23.3-12.4c3.7-4.8,5.4-10,5.4-15.7c-0.1-2.2-0.1-3.9,0-5V27.5 M32.6,13.3h4.2
			c2.4-0.1,5,0.7,7.7,2c2,1.1,3.2,1.9,3.6,2.5c0.2-0.2,0.7-0.7,1.2-1.1c1.5-1.2,2.4-1.9,2.5-2.1c1.4-1.4,2.4-1.8,2.7-1.1
			c0.1,0.2,0.2,0.8,0.2,1.9c0,2.1-0.1,4.3-0.2,6.7c-0.1,2.4-0.2,5.4-0.2,9c0,0.1,0,0.2-0.1,0.2c0.1,0.1,0.1,0.2,0.1,0.2
			c0,0.2-0.1,0.2-0.2,0.4c-0.1,0.1-0.2,0.2-0.3,0.2c-1.6,0-4.9-0.4-9.7-1.2c-5.5-0.9-8.1-1.8-8.1-2.5c0-0.5,1.2-1.7,3.7-3.6
			c0.9-0.7,1.6-1.2,2.3-1.5c-0.1-0.1-0.2-0.1-0.2-0.2c-0.6-0.5-1-0.8-1.2-0.9c-0.8-0.3-1.4-0.6-1.8-0.7c-0.6-0.2-1.3-0.3-2.2-0.5
			h-3.7c-4.6,0.7-8,2.7-10,6c-1.3,2.1-2,4.6-2,7.3c0,1.2,0.2,2.2,0.5,2.9c0.2,0.5,0.8,1.6,1.8,3.5c0.7,1.5,1.5,2.5,2.5,3.3
			c1.7,1.2,4.4,2,8.1,2.4h3.7c1.9-0.5,3.3-1,4.4-1.5c0.7-0.4,1.5-1,2.5-1.8c0.2-0.2,0.8-1,1.5-2.1c0.7-1.1,1.1-1.5,1.2-1.5
			c0.1,0,0.1,0,0.1,0.1c0.1-0.1,0.2-0.1,0.2-0.1c0.4,0,0.9,0.2,1.5,0.5c0.5,0.1,1.8,0.3,4,0.7c0.7,0.1,1,0.2,1,0.5
			c0.1,0.1,0.2,0.2,0.2,0.4c0,0.8-0.5,2-1.5,3.4c-1.1,1.5-2.4,3.1-4.1,4.6c-4.2,3.8-8.1,5.8-11.9,5.9h-5.3c-3,0.1-6.2-1.2-9.5-3.8
			c-2.2-1.8-4-3.7-5.5-5.9c-1.4-1.9-2.2-3.7-2.5-5.3c-0.2-1-0.3-2.7-0.3-5c0-6.3,1.8-11.5,5.4-15.6S27,13.6,32.6,13.3L32.6,13.3z"/>
		<path class="st1" d="M36.8,14.5h-4.2c-7.2,1.4-12.2,4.3-15.1,8.8c-2,3.1-3.1,7.2-3.1,12.2s1.9,9.4,5.7,13.2
			c3.4,3.4,7.2,5.3,11.3,5.5h5c2.7-0.5,5.1-1.4,7.4-2.9c1.3-0.8,2.8-2,4.4-3.5c1.6-1.5,2.8-2.8,3.3-3.7c0.3-0.7,0.7-1.3,0.9-1.8
			c0.2-0.2,0.2-0.6,0.5-0.7c-2-0.1-3.7-0.3-4.7-0.8c-0.2-0.1-0.5-0.2-0.7-0.3c-0.2,1.1-1.2,2.3-2.9,3.8c-2.3,2-4.6,3.1-7,3.3h-4.1
			c-4.1-0.5-7-1.3-8.7-2.6c-0.9-0.7-1.8-1.8-2.7-3.7c-1.1-2-1.8-3.3-2-3.8c-0.2-0.7-0.4-1.6-0.4-3.2c0-3.1,0.7-5.8,2-8
			c2.1-3.6,5.9-5.7,11.1-6.4v-0.1h3.8c1.6,0.2,3.2,0.7,4.6,1.5c1.1,0.6,1.7,1.1,2,1.5c0.2,0,0.2,0.1,0.2,0.3s-0.8,1-2.4,2.2
			c-0.8,0.7-2,1.5-3.5,2.7c1.1,0.2,2.5,0.6,4.2,1.1c1.4,0.3,2.6,0.7,3.6,0.8c0.7,0.1,2.4,0.2,5.3,0.5c1.1,0.1,2,0.2,2.6,0.5
			c-0.1-0.2-0.1-0.7-0.1-1.1c0-1.2,0-1.9,0-2c0-1.5,0.1-3.4,0.2-5.8c0.2-3.4,0.4-5.4,0.4-5.8v-1.8l-0.1-0.1
			c-0.7,0.7-1.6,1.5-3.1,2.7c-1.5,1.2-2.4,1.8-2.6,1.8c-0.2,0-0.4-0.1-0.5-0.2c0-0.1,0-0.2,0-0.2c-2-1.4-3.1-2.1-3.3-2.4
			c-0.6-0.2-1.5-0.5-2.8-0.8C39.5,15,38,14.7,36.8,14.5z"/>
	</g>
</g>
<animateTransform attributeName="transform" type="rotate" from="0" to="360" dur="720ms" repeatCount="indefinite"></animateTransform>
</svg>
